<svg width="28" height="28" viewBox="0 0 28 28" fill="none" xmlns="http://www.w3.org/2000/svg">
<circle cx="14" cy="14" r="14" fill="#2F2F2F"/>
<path d="M14 25C7.92035 25 3 20.0802 3 14C3 7.92035 7.91975 3 14 3C20.0796 3 25 7.91975 25 14C25 20.0796 20.0802 25 14 25ZM14 4.44418C8.73091 4.44418 4.44418 8.73091 4.44418 14C4.44418 19.2691 8.73091 23.5558 14 23.5558C19.2691 23.5558 23.5558 19.2691 23.5558 14C23.5558 8.73091 19.2691 4.44418 14 4.44418Z" fill="#F3F3F3"/>
<path d="M18.4677 15.5971L14.7416 19.3233C13.8589 20.206 12.4301 20.2061 11.5473 19.3233C10.6646 18.4406 10.6645 17.0119 11.5473 16.1291L13.6764 14L11.5473 11.8709C10.6646 10.9883 10.6645 9.55949 11.5473 8.67669C12.4299 7.79403 13.8588 7.79386 14.7415 8.67669L18.4676 12.4028C18.8943 12.8294 19.1292 13.3966 19.1292 13.9999C19.1292 14.6032 18.8943 15.1705 18.4677 15.5971ZM17.4465 13.4241L13.7203 9.69793C13.4021 9.37966 12.8868 9.37962 12.5685 9.69793C12.2502 10.0163 12.2502 10.5314 12.5685 10.8498L15.2082 13.4895C15.4902 13.7715 15.4902 14.2286 15.2082 14.5106L12.5685 17.1503C12.2502 17.4687 12.2502 17.9838 12.5685 18.3022C12.8868 18.6205 13.402 18.6205 13.7203 18.3022L17.4464 14.576C17.7641 14.2584 17.7641 13.7416 17.4465 13.4241Z" fill="#F3F3F3"/>
</svg>
