<svg width="171" height="168" viewBox="0 0 171 168" fill="none" xmlns="http://www.w3.org/2000/svg">
<path d="M61.6183 111.578V121.499H63.551V111.578H61.6183Z" fill="#030405"/>
<path d="M52.9859 119.18C52.6844 119.709 52.4454 120.252 52.3417 120.855C54.0762 121.523 55.9212 121.933 57.7531 121.365C59.3976 120.855 60.3124 118.958 59.4985 117.376C58.5598 115.552 56.2461 116.111 54.9479 114.878C54.2531 114.217 54.7312 113.368 55.5629 113.174C56.7613 112.899 57.8044 113.451 58.9127 113.768C59.1523 113.262 59.4019 112.761 59.5569 112.222C58.1845 111.442 56.1998 111.127 54.6609 111.583C52.9733 112.084 52.1494 113.808 52.8513 115.443C53.7191 117.464 56.3392 116.715 57.5678 118.176C58.1725 118.895 57.4156 119.578 56.7223 119.785C55.403 120.178 54.2094 119.591 52.9859 119.18Z" fill="#030405"/>
<path d="M65.097 111.578V113.382H68.1892V121.499H69.993V113.382H73.2141V111.578H65.097Z" fill="#030405"/>
<path fill-rule="evenodd" clip-rule="evenodd" d="M43.3226 121.499V111.578C43.7144 111.578 44.1604 111.556 44.6348 111.532C47.1441 111.405 50.4453 111.238 50.6978 114.155C50.735 114.585 50.7125 115.018 50.626 115.443C50.4999 116.063 50.1273 116.549 49.6355 116.937C49.5727 116.986 49.4947 117.033 49.4133 117.083C49.1806 117.223 48.9211 117.38 48.917 117.651C48.9126 117.951 49.1427 118.288 49.335 118.57C49.3893 118.65 49.4405 118.725 49.4827 118.793C49.618 119.014 49.7579 119.234 49.8982 119.454C50.3198 120.116 50.7441 120.782 51.0531 121.499C50.914 121.499 50.7525 121.51 50.5803 121.521C50.006 121.558 49.3123 121.603 48.931 121.293C48.4125 120.87 48.0333 120.128 47.6852 119.446C47.5425 119.167 47.4049 118.897 47.2651 118.665C47.2235 118.595 47.1821 118.521 47.1396 118.445C46.9712 118.142 46.7859 117.809 46.5012 117.638C46.2255 117.47 45.8479 117.485 45.5094 117.498C45.4212 117.502 45.3356 117.505 45.2552 117.505V121.499H43.3226ZM45.384 115.83V113.382C45.5747 113.382 45.7832 113.372 46.0005 113.362C46.7551 113.326 47.6162 113.284 48.2109 113.638C48.9714 114.091 48.8468 115.268 48.084 115.646C47.5097 115.93 46.7286 115.889 46.026 115.853C45.8008 115.841 45.5837 115.83 45.384 115.83Z" fill="#2F2F2F"/>
<path d="M35.3343 111.578V121.499H41.3899V119.695H38.4265C38.047 119.694 37.5142 119.762 37.2706 119.396C36.9347 118.894 37.1381 117.832 37.1381 117.247H41.0034V115.572H38.6842C38.3304 115.572 37.8765 115.639 37.5437 115.495C36.9691 115.244 36.9323 113.722 37.4368 113.386C37.7671 113.165 38.3084 113.253 38.6842 113.253H41.3899V111.578H35.3343Z" fill="#030405"/>
<path d="M25.0269 111.578C25.5869 113.998 26.4774 116.434 27.2602 118.793C27.4809 119.458 27.6281 120.931 28.2096 121.366C28.7662 121.784 30.2762 121.499 30.9537 121.499C31.7211 118.152 32.9835 114.843 34.0459 111.578C33.5164 111.578 32.5018 111.384 32.057 111.711C31.6072 112.041 31.478 113.128 31.3222 113.64C30.759 115.487 29.8334 117.51 29.6653 119.438C29.1624 118.908 29.0356 118.068 28.838 117.376C28.4928 116.169 28.0949 114.977 27.7507 113.768C27.5973 113.23 27.4639 112.061 26.9978 111.711C26.5631 111.382 25.5481 111.578 25.0269 111.578Z" fill="#030405"/>
<path d="M21.8057 111.578V121.499H23.6095V111.578H21.8057Z" fill="#030405"/>
<path d="M10.983 111.578V121.499H12.7868V114.541C13.2609 115.009 13.5707 115.65 13.9216 116.216C14.6107 117.328 15.2695 118.46 15.9668 119.566C16.3061 120.105 16.6508 121.029 17.2098 121.366C17.7454 121.691 18.7502 121.499 19.3578 121.499V111.578H17.4251V118.278C16.2622 116.91 15.3854 115.179 14.4617 113.64C14.1166 113.065 13.7428 112.059 13.1463 111.711C12.5969 111.39 11.6013 111.578 10.983 111.578Z" fill="#030405"/>
<path d="M0.160104 111.578V116.603C0.160104 117.719 0.102639 118.943 0.671482 119.953C2.02949 122.364 6.90388 122.239 8.17092 119.824C8.65396 118.903 8.53491 117.867 8.53491 116.861V111.578H6.7311V116.088C6.7311 116.895 6.84088 117.785 6.48372 118.536C5.72522 120.129 3.24074 120.189 2.36203 118.665C1.96996 117.984 2.09275 117.098 2.09275 116.345V111.578H0.160104Z" fill="#030405"/>
<path d="M74.1161 111.578C74.808 112.891 75.5798 114.182 76.3606 115.443C76.8321 116.204 77.4841 117.037 77.7624 117.891C78.0935 118.907 77.8526 120.309 77.8526 121.37C78.4659 121.37 79.056 121.356 79.6564 121.499C79.6564 120.359 79.3961 118.845 79.7813 117.763C80.5686 115.55 82.5528 113.825 83.264 111.578C82.6932 111.578 81.7514 111.399 81.2514 111.711C80.8752 111.945 80.6266 112.494 80.4127 112.867C79.8767 113.801 79.1874 114.795 78.8833 115.83H78.6256C78.2481 114.799 77.5652 113.824 77.0254 112.867C76.8192 112.503 76.6208 111.943 76.2562 111.711C75.7382 111.381 74.7101 111.578 74.1161 111.578Z" fill="#030405"/>
<path fill-rule="evenodd" clip-rule="evenodd" d="M88.2283 119.824C86.025 116.999 87.2568 112.182 90.9945 111.509C92.9967 111.148 95.0827 111.677 96.3041 113.382C98.287 116.151 96.9677 120.805 93.4425 121.486C91.5395 121.855 89.4703 121.417 88.2283 119.824ZM89.8852 118.659C88.4898 116.978 89.1521 113.962 91.3811 113.45C92.587 113.173 93.9128 113.504 94.6472 114.541C95.8661 116.264 95.0479 119.082 92.9272 119.564C91.8552 119.807 90.6093 119.531 89.8852 118.659Z" fill="#2F2F2F"/>
<path d="M98.5962 111.578V121.37H100.4V118.536C100.401 118.193 100.339 117.72 100.606 117.453C100.873 117.187 101.346 117.249 101.688 117.247H104.523V115.572H100.529V113.382H104.91V111.578H98.5962Z" fill="#030405"/>
<path d="M109.29 119.18C108.989 119.679 108.731 120.184 108.517 120.726C110.662 122.075 115.951 122.353 115.99 118.793C115.993 118.451 116.004 118.095 115.908 117.763C115.265 115.538 112.531 116.137 111.146 114.846C110.574 114.313 110.856 113.636 111.483 113.312C112.04 113.024 112.818 113.084 113.413 113.211C114.034 113.342 114.6 113.637 115.217 113.768L115.861 112.222C113.681 110.983 108.835 110.765 108.906 114.284C108.914 114.678 108.962 115.075 109.111 115.443C109.931 117.447 112.524 116.752 113.769 118.163C114.444 118.929 113.666 119.624 112.898 119.819C111.644 120.136 110.432 119.649 109.29 119.18Z" fill="#030405"/>
<path d="M117.407 121.499V111.578H119.34V115.572H123.592V111.578H125.524V121.37H123.721V118.665C123.721 118.597 123.723 118.525 123.726 118.45C123.738 118.142 123.751 117.79 123.588 117.546C123.397 117.26 123.042 117.254 122.732 117.248C122.718 117.248 122.704 117.248 122.69 117.247C121.876 117.233 121.056 117.233 120.242 117.247C120.228 117.248 120.214 117.248 120.2 117.248C119.89 117.254 119.535 117.26 119.344 117.546C119.181 117.79 119.194 118.142 119.206 118.45C119.208 118.525 119.211 118.597 119.211 118.665V121.37C119.16 121.37 119.11 121.37 119.059 121.37C118.5 121.369 117.958 121.368 117.407 121.499Z" fill="#2F2F2F"/>
<path fill-rule="evenodd" clip-rule="evenodd" d="M127.01 121.521C126.846 121.51 126.69 121.499 126.555 121.499C126.696 120.679 127.017 119.859 127.327 119.064C127.413 118.843 127.499 118.624 127.58 118.407C127.787 117.85 127.985 117.289 128.183 116.727C128.456 115.952 128.729 115.177 129.029 114.413C129.124 114.172 129.208 113.878 129.297 113.568C129.485 112.914 129.691 112.194 130.052 111.784C130.375 111.417 131.882 111.452 132.299 111.655C132.785 111.893 133.044 112.85 133.24 113.57C133.302 113.799 133.358 114.005 133.412 114.155C133.735 115.05 134.071 115.94 134.408 116.831C134.993 118.379 135.578 119.927 136.09 121.499H134.028C133.933 120.861 133.653 119.556 133.076 119.184C132.81 119.013 132.428 119.029 132.092 119.044C132.003 119.047 131.917 119.051 131.838 119.051H129.261C129.173 119.646 128.896 121.132 128.305 121.422C127.967 121.587 127.457 121.552 127.01 121.521ZM130.034 117.247L131.194 113.769C131.878 114.674 132.228 116.148 132.482 117.247H130.034Z" fill="#2F2F2F"/>
<path fill-rule="evenodd" clip-rule="evenodd" d="M137.12 121.499V111.578H140.599C141.555 111.578 142.615 111.596 143.431 112.177C145.374 113.561 144.52 116.754 142.403 117.376C142.681 117.971 143.054 118.534 143.428 119.098C143.939 119.87 144.451 120.643 144.722 121.499C144.585 121.499 144.425 121.51 144.253 121.521C143.68 121.559 142.98 121.606 142.61 121.293C142.076 120.84 141.753 120.163 141.43 119.485C141.137 118.872 140.843 118.257 140.392 117.804C139.583 116.992 138.929 117.841 138.924 118.665V121.499H137.12ZM139.053 115.83V113.382C139.246 113.382 139.458 113.372 139.681 113.362C140.471 113.324 141.386 113.281 141.997 113.66C142.649 114.066 142.514 115.284 141.873 115.628C141.289 115.942 140.459 115.896 139.721 115.856C139.485 115.842 139.259 115.83 139.053 115.83Z" fill="#2F2F2F"/>
<path d="M148.845 111.578V117.247C148.845 117.997 148.867 118.978 148.184 119.472C147.535 119.943 146.702 119.596 146.011 119.438C145.782 119.994 145.525 120.531 145.366 121.113C145.902 121.343 146.465 121.481 147.041 121.571C148.196 121.752 149.589 121.592 150.208 120.468C150.734 119.515 150.649 118.296 150.649 117.247V111.578H148.845Z" fill="#030405"/>
<path fill-rule="evenodd" clip-rule="evenodd" d="M154.12 113.533C154.375 112.893 154.631 112.251 154.772 111.578C154.924 111.578 155.119 111.563 155.333 111.546C155.963 111.495 156.759 111.432 157.13 111.711C157.309 111.845 157.393 112.083 157.469 112.301C157.491 112.363 157.513 112.424 157.536 112.48C157.811 113.163 158.053 113.846 158.294 114.541C158.603 115.43 158.953 116.313 159.303 117.196C159.866 118.616 160.429 120.04 160.827 121.499C160.709 121.499 160.566 121.509 160.409 121.52C159.871 121.558 159.182 121.606 158.874 121.293C158.632 121.047 158.536 120.68 158.439 120.311C158.322 119.866 158.204 119.419 157.828 119.184C157.557 119.014 157.172 119.03 156.833 119.044C156.743 119.047 156.656 119.051 156.576 119.051H153.999C153.909 119.66 153.655 121.123 153.043 121.422C152.705 121.587 152.196 121.552 151.749 121.521C151.584 121.51 151.429 121.499 151.293 121.499C151.702 119.733 152.392 117.979 153.07 116.254C153.33 115.593 153.588 114.936 153.829 114.284C153.921 114.033 154.021 113.783 154.12 113.533ZM154.772 117.247L155.932 113.768C156.595 114.646 157.037 116.167 157.22 117.247H154.772Z" fill="#2F2F2F"/>
<path d="M161.858 111.578V121.499H163.662V118.665C163.662 118.292 163.578 117.745 163.868 117.453C164.159 117.163 164.707 117.247 165.079 117.247H168.043V121.37H169.846V115.057C169.846 113.919 169.711 112.689 169.975 111.578H168.043V115.572H165.079C164.707 115.572 164.159 115.656 163.868 115.366C163.601 115.099 163.663 114.627 163.662 114.284V111.578H161.858Z" fill="#030405"/>
<path d="M140.599 93.2824V104.492H169.718C169.718 104.059 169.807 103.505 169.64 103.096C169.334 102.345 168.367 101.686 167.882 101.013C166.908 99.6704 165.887 98.3253 164.435 97.4633C162.455 96.2896 159.677 96.5576 157.735 97.6631C157.957 98.1965 158.217 98.7105 158.508 99.2092C159.579 98.9025 160.578 98.2789 161.729 98.315C164.146 98.3897 166.079 101.041 167.141 102.946H142.145V93.2824H140.599Z" fill="#030405"/>
<path d="M162.376 106.135C161.142 106.609 161.825 108.722 163.142 108.222C164.375 107.754 163.708 105.622 162.376 106.135Z" fill="#030405"/>
<path fill-rule="evenodd" clip-rule="evenodd" d="M137.926 103.366C137.91 103.799 137.893 104.221 137.893 104.621H97.5655C97.1635 104.621 96.7477 104.635 96.3257 104.65C95.0504 104.696 93.7188 104.743 92.5406 104.39C89.3943 103.449 89.1623 99.0133 91.6387 97.2494C92.5051 96.6313 93.5008 96.6318 94.5178 96.6322L98.5962 96.6323V102.946H115.99C115.77 102.182 115.42 101.438 115.075 100.704C114.941 100.419 114.808 100.136 114.684 99.8533C114.655 99.7886 114.621 99.7193 114.586 99.6467C114.423 99.3103 114.225 98.9043 114.346 98.5662C114.588 97.8885 115.631 97.3731 116.248 97.1064C117.912 96.3849 120.147 96.4094 121.788 97.1902C122.341 97.453 123.069 97.8846 123.371 98.4374C123.583 98.8252 123.371 99.2695 123.188 99.6533C123.155 99.7221 123.123 99.789 123.094 99.8533C122.642 100.876 122.193 101.903 121.788 102.946H130.034C129.611 101.695 129.271 100.357 129.823 99.0803C130.931 96.5112 134.552 95.7355 136.6 97.6759C138.09 99.0896 138.003 101.349 137.926 103.366ZM96.5348 98.436V102.817C96.3089 102.817 96.0671 102.826 95.8167 102.835C94.8345 102.872 93.7211 102.915 92.9285 102.429C91.4571 101.526 91.6619 99.3663 93.1849 98.6383C93.8868 98.3028 94.8448 98.3561 95.7086 98.4043C95.9991 98.4204 96.2789 98.436 96.5348 98.436ZM117.157 100.515L117.204 100.626C117.256 100.751 117.312 100.91 117.373 101.085C117.59 101.705 117.877 102.525 118.344 102.739C119.569 103.299 120.078 101.944 120.448 100.957C120.511 100.79 120.571 100.633 120.628 100.498C120.664 100.413 120.715 100.316 120.769 100.212C120.946 99.8693 121.165 99.4477 121.052 99.1344C120.93 98.7915 120.391 98.6654 120.053 98.5862L119.984 98.5701C118.816 98.2905 117.732 98.5288 116.634 98.9514C116.728 99.4967 116.942 100.006 117.157 100.515ZM135.969 102.221C135.965 102.421 135.961 102.62 135.961 102.817C135.778 102.817 135.594 102.819 135.41 102.822C134.776 102.831 134.137 102.841 133.513 102.741C133.102 102.675 132.702 102.596 132.358 102.346C130.31 100.853 132.389 97.547 134.672 98.6937C134.985 98.8509 135.278 99.0674 135.49 99.3495C135.739 99.6832 135.84 100.094 135.904 100.498C135.995 101.059 135.982 101.644 135.969 102.221Z" fill="#2F2F2F"/>
<path d="M94.2208 92.9912C92.9259 93.5118 93.8072 95.5127 95.1124 94.9909C96.4137 94.4691 95.5543 92.4552 94.2208 92.9912Z" fill="#030405"/>
<path d="M97.0644 93.0285C95.8545 93.7075 96.9742 95.6195 98.1956 94.9341C99.4119 94.2525 98.2922 92.3392 97.0644 93.0285Z" fill="#030405"/>
<path d="M82.4908 93.1536V104.621H84.2946V93.1536H82.4908Z" fill="#030405"/>
<path d="M30.9537 96.6323V102.044C30.9537 102.852 31.084 103.9 30.5813 104.596C30.0466 105.338 29.0779 105.391 28.248 105.394V107.069C29.2472 107.069 30.3173 107.152 31.2113 106.62C32.627 105.776 32.7575 104.304 32.7575 102.817V96.6323H30.9537Z" fill="#030405"/>
<path fill-rule="evenodd" clip-rule="evenodd" d="M27.8614 96.6324C27.5234 96.6324 27.1811 96.625 26.8382 96.6177C24.4044 96.5654 21.9351 96.5123 20.6815 99.0804C20.4415 99.5726 20.3609 100.088 20.2965 100.627C20.2305 101.178 20.3159 101.671 20.4036 102.177C20.447 102.427 20.4909 102.68 20.5173 102.946H9.69453C9.65585 102.945 9.61579 102.946 9.57484 102.946C9.286 102.948 8.95261 102.951 8.74148 102.74C8.46326 102.461 8.49568 101.907 8.52161 101.464C8.5285 101.347 8.53494 101.237 8.53494 101.142V96.6324H4.79849C4.72229 96.6324 4.64654 96.6321 4.57123 96.6319C3.54505 96.6285 2.59954 96.6254 1.70626 97.2508C-0.808117 99.0121 -0.573236 103.458 2.60816 104.411C3.43714 104.658 4.34069 104.643 5.21419 104.628C5.42136 104.624 5.62684 104.621 5.82924 104.621H27.8614V96.6324ZM6.6024 102.817V98.4361C6.34343 98.4361 6.06676 98.4228 5.78198 98.4091C4.87536 98.3654 3.88646 98.3178 3.12415 98.6835C1.63834 99.396 1.61952 101.597 2.99531 102.429C3.79355 102.912 4.90306 102.871 5.88643 102.835C6.13555 102.826 6.37658 102.817 6.6024 102.817ZM25.8 102.817H22.5789C22.2298 101.125 21.8814 99.0391 24.125 98.5044C24.5336 98.4073 24.9732 98.4185 25.4015 98.4294C25.5359 98.4328 25.6692 98.4361 25.8 98.4361V102.817Z" fill="#2F2F2F"/>
<path d="M4.1684 93.0285C2.96011 93.7062 4.06248 95.6286 5.29989 94.9341C6.51604 94.2525 5.39576 92.3392 4.1684 93.0285Z" fill="#030405"/>
<path d="M7.25218 92.9912C5.96723 93.5079 6.82352 95.55 8.13631 94.9754C9.41533 94.4162 8.56574 92.4642 7.25218 92.9912Z" fill="#030405"/>
<path d="M23.4878 92.9913C22.2114 93.5118 23.0528 95.523 24.3769 94.9909C25.6675 94.4717 24.8057 92.4553 23.4878 92.9913Z" fill="#030405"/>
<path d="M26.3294 93.0285C25.1137 93.7114 26.2127 95.635 27.4609 94.9341C28.674 94.2538 27.5726 92.3289 26.3294 93.0285Z" fill="#030405"/>
<path d="M35.3343 93.1536V104.621C41.7129 104.621 48.1602 104.898 54.5319 104.615C55.0124 104.595 55.5056 104.507 55.9492 104.317C56.2359 104.193 56.5278 103.953 56.8511 103.947C57.3151 103.935 57.7404 104.378 58.1395 104.569C58.7439 104.856 59.4122 104.905 60.0722 104.873C60.6762 104.844 61.2279 104.619 61.7471 104.318C62.0186 104.161 62.3182 103.854 62.649 103.848C63.0899 103.839 63.5531 104.329 63.9375 104.515C64.5349 104.801 65.2126 104.892 65.8701 104.876C66.4723 104.862 67.1363 104.677 67.6739 104.404C67.9968 104.239 68.3259 103.859 68.7047 103.848C69.029 103.837 69.3303 104.119 69.6066 104.255C70.0446 104.47 70.5387 104.576 71.0238 104.609C73.9576 104.815 76.9725 104.621 79.914 104.621V93.1536H78.1102V102.946H72.4411C71.5109 102.946 70.5367 102.915 69.9793 102.041C69.6425 101.514 69.7354 100.838 69.7354 100.24V96.6323H67.9316V99.7246C67.9316 100.374 67.9973 101.054 67.7095 101.657C66.9317 103.287 64.7831 103.578 63.8446 101.915C63.1773 100.731 63.5509 98.7235 63.5509 97.4054H61.6183V100.24C61.6183 100.799 61.6648 101.396 61.4156 101.915C60.6812 103.447 58.8256 103.322 58.0401 101.915C57.3786 100.73 57.753 98.7273 57.753 97.4054H55.9492V100.498C55.9492 101.215 55.9913 101.871 55.4198 102.401C54.4645 103.286 52.6354 102.946 51.4397 102.946H38.5554C38.1835 102.946 37.6353 103.029 37.3446 102.74C36.8775 102.272 37.1381 100.853 37.1381 100.24V93.1536H35.3343Z" fill="#030405"/>
<path d="M62.2645 91.4258C60.9079 91.7904 61.5168 93.8481 62.9048 93.4989C64.2513 93.1601 63.6475 91.0535 62.2645 91.4258Z" fill="#030405"/>
<path d="M60.5933 93.8931C59.3026 94.4124 60.1553 96.4301 61.4838 95.9108C62.7769 95.4045 61.9239 93.3584 60.5933 93.8931Z" fill="#030405"/>
<path d="M63.6855 93.8931C62.3949 94.4124 63.2476 96.4301 64.5761 95.9108C65.8691 95.4045 65.0162 93.3584 63.6855 93.8931Z" fill="#030405"/>
<path d="M48.7341 56.1756C48.8242 57.2093 49.1268 58.2266 49.2275 59.2679C49.464 61.7087 49.5071 64.1585 49.5071 66.6119H53.7589C53.7589 63.1047 53.8694 59.5965 54.6608 56.1756H48.7341ZM58.7838 56.1756C60.0672 59.4845 59.9434 63.1159 59.9434 66.6119H65.999C65.999 63.1164 65.88 59.4905 67.1586 56.1756H58.7838ZM71.4104 56.1756C71.6966 57.1766 72.1577 58.115 72.3858 59.139C72.9256 61.5508 72.9566 64.1513 72.9566 66.6119H81.2025C81.2025 63.1056 81.245 59.3675 82.8775 56.1756H71.4104ZM87.1293 56.1756C87.3664 57.0063 87.78 57.777 87.9758 58.6236C88.5878 61.2684 88.6754 63.9106 88.6754 66.6119H97.0502C97.0502 64.03 96.9691 61.4141 97.5707 58.8813C97.7975 57.9238 98.2214 57.076 98.5963 56.1756H87.1293ZM102.848 56.1756C102.977 57.0485 103.321 57.8747 103.458 58.7525C103.858 61.3505 104.008 63.9855 104.008 66.6119H109.806C109.806 63.129 110.011 59.499 111.094 56.1756H102.848ZM115.217 56.1756C116.164 59.545 116.119 63.1366 116.119 66.6119H120.371C120.371 63.1864 120.217 59.4749 121.273 56.1756H115.217Z" fill="#030405"/>
<path d="M23.223 78.7232C24.5795 79.9021 26.7969 80.6094 28.5056 81.0965C29.1568 81.282 29.8806 81.5732 30.5671 81.5307C31.3967 81.4791 32.2227 81.0849 33.0151 80.8568C34.5561 80.4136 36.098 79.9459 37.6535 79.5568C42.9583 78.231 48.2776 77.1551 53.63 76.0548C59.0144 74.9468 64.5397 74.5847 69.9931 74.0629C86.3575 72.4987 103.063 73.5913 119.211 76.6114C123.792 77.4682 128.377 78.4745 132.869 79.7217C133.85 79.9936 134.867 80.2139 135.832 80.5373C136.924 80.9019 138.155 81.4418 139.311 81.5294C140.008 81.5822 140.715 81.2897 141.372 81.0965C143.045 80.6056 145.364 79.9317 146.655 78.7232C144.312 77.8393 141.738 77.4979 139.311 76.9142C132.458 75.2663 125.527 74.2188 118.567 73.1443C109.838 71.7966 101.084 71.3729 92.283 70.9875C87.405 70.7739 82.4728 70.7739 77.5948 70.9875C73.0389 71.187 68.4805 71.2263 63.9375 71.6587C59.6757 72.0645 55.4283 72.6443 51.182 73.1597C44.1474 74.0127 37.0603 75.2805 30.1806 76.9992C27.8821 77.5739 25.4452 77.8844 23.223 78.7232Z" fill="#39B285"/>
<path d="M84.9388 0C84.5909 1.14374 84.5471 2.42354 84.3874 3.60761C84.2572 4.56916 83.9647 5.5981 83.9815 6.57048C83.9892 7.01126 84.3848 7.22514 84.435 7.62365C84.4891 8.06571 84.0008 8.44979 83.9403 8.89017C83.8823 9.30814 84.2327 9.76914 84.0498 10.1562C83.8475 10.5824 83.2381 10.8861 82.8773 11.1644C81.9097 11.9097 80.6857 12.5806 79.9139 13.5285C81.2114 13.3537 82.4624 12.8593 83.7792 12.7669C85.9464 12.6152 87.8674 13.0959 89.9637 13.5285C89.1842 12.5649 87.9744 11.9127 87.0003 11.1547C86.646 10.8789 86.0327 10.5528 85.8278 10.14C85.6578 9.79543 85.9567 9.38094 85.9541 9.01902C85.9515 8.53779 85.5353 8.19146 85.5353 7.73059C85.5353 7.31301 85.9013 6.99966 85.9141 6.571C85.9541 5.23412 85.5508 3.77021 85.3601 2.44802C85.248 1.66517 85.2519 0.725129 84.9388 0Z" fill="#030405"/>
<path d="M53.3725 45.997C54.6195 44.8119 55.6285 43.3041 56.7587 42.0028C57.4108 41.2519 58.3515 40.4599 58.7822 39.5548C58.9655 39.1694 58.9275 38.6829 58.9873 38.2664C59.0997 37.4844 59.2907 36.7199 59.4553 35.9472C59.8655 34.0207 60.5659 32.0274 61.4749 30.2781C63.0325 27.2806 64.9931 24.6246 67.299 22.1611C68.3282 21.0616 69.6957 20.2358 70.6374 19.0688C68.4385 19.7694 66.5245 21.9265 64.8395 23.4126C61.1687 26.65 58.1032 30.8411 55.4238 34.9165C54.7452 35.9486 54.0428 36.9542 53.3968 38.0087C53.0971 38.4979 52.6884 38.994 52.5348 39.5548C52.3831 40.1096 52.5495 40.6736 52.5879 41.2298C52.6949 42.784 52.7557 44.5446 53.3725 45.997Z" fill="#030405"/>
<path d="M99.2406 19.0688C100.265 20.2486 101.62 21.1655 102.718 22.2898C105.013 24.6421 107.092 27.4133 108.477 30.4069C109.259 32.0979 109.993 33.8647 110.396 35.6895C110.583 36.5399 110.781 37.4085 110.924 38.2664C111.004 38.7503 110.974 39.2308 111.204 39.6817C111.853 40.961 113.217 42.0622 114.134 43.1624C114.852 44.0268 115.614 45.3708 116.634 45.8681C116.75 44.452 117.163 43.0461 117.3 41.6163C117.365 40.947 117.517 40.2234 117.353 39.5548C117.195 38.9041 116.7 38.3119 116.352 37.751C115.593 36.5271 114.77 35.3412 113.971 34.1434C111.226 30.027 108.034 26.1419 104.394 22.7941C102.954 21.47 101.142 19.6747 99.2406 19.0688Z" fill="#030405"/>
<path d="M90.4792 19.5841C90.8915 21.0252 91.5808 22.3862 91.9982 23.8359C92.5819 25.8594 92.8022 28.3091 92.6579 30.4069C92.511 32.5589 92.1645 34.6087 91.7419 36.7203C91.586 37.4977 91.0126 38.6492 91.1698 39.426C91.3141 40.1394 92.1812 40.7413 92.6695 41.2298C93.6732 42.2331 94.6588 43.27 95.611 44.322C96.1715 44.9417 96.6649 45.6371 97.4367 45.997C98.3528 44.512 99.4183 43.135 100.291 41.6163C100.611 41.058 101.185 40.3444 101.234 39.6837C101.274 39.1218 100.735 38.5751 100.443 38.1375C99.7275 37.064 99.0923 35.9338 98.501 34.7876C96.7654 31.4246 95.1665 27.9938 93.4748 24.609C92.6708 23.0008 91.8166 20.8102 90.4792 19.5841Z" fill="#030405"/>
<path d="M61.7472 45.9969C63.3888 44.8162 64.6571 42.8988 66.1278 41.4925C66.7186 40.9276 67.8033 40.322 68.1116 39.5433C68.4668 38.6455 68.0605 37.2842 68.0605 36.3337C68.0605 34.008 68.1264 31.6477 68.6724 29.3762C69.294 26.7896 70.3483 24.3506 71.8624 22.161C72.463 21.2923 73.2541 20.5744 73.8584 19.7129C73.2361 20.0032 72.7942 20.5194 72.3123 21.0014C71.4826 21.831 70.6939 22.6785 69.9402 23.5782C67.1009 26.9675 64.7408 30.7231 62.3054 34.4011C61.5455 35.5485 60.81 36.7139 60.0786 37.8798C59.7687 38.3742 59.2647 38.955 59.2113 39.5548C59.1527 40.2119 59.5575 41.0155 59.7902 41.6163C60.3694 43.1119 61.1326 44.5209 61.7472 45.9969Z" fill="#030405"/>
<path d="M47.8321 45.9971C48.8921 44.8686 49.6581 43.284 50.5412 42.0029C51.0781 41.2239 51.8529 40.443 52.1944 39.5549C52.4741 38.8269 52.5009 37.9887 52.7166 37.2357C53.1491 35.7252 53.7905 34.2701 54.4657 32.8551C56.9654 27.6167 61.3658 22.7115 66.5144 19.9707C65.8566 19.8614 65.1269 20.4924 64.5817 20.8212C62.8747 21.8511 61.227 23.0139 59.6857 24.2772C55.0013 28.1167 50.8492 33.1903 48.9954 39.0395C48.2613 41.3557 48.1328 43.6177 47.8321 45.9971Z" fill="#030405"/>
<path d="M79.141 19.8419C76.0732 24.3936 73.9563 29.632 71.5074 34.53C70.9075 35.7296 70.2562 36.8856 69.522 38.0088C69.2229 38.4664 68.6285 39.107 68.6558 39.6837C68.6842 40.2797 69.245 40.98 69.5323 41.4875C70.4162 43.0485 71.5588 44.4483 72.4411 45.997C73.182 45.6494 73.6754 44.9409 74.2346 44.3584L77.2135 41.2298C77.6747 40.7473 78.6256 40.1223 78.739 39.426C78.8047 39.0233 78.574 38.5261 78.4813 38.1376C78.2687 37.2414 78.0162 36.3353 77.8435 35.4319C77.3268 32.7054 77.1593 29.9443 77.3487 27.1859C77.466 25.4777 77.8718 23.7796 78.413 22.1611C78.6436 21.4739 79.2904 20.5639 79.141 19.8419Z" fill="#030405"/>
<path d="M96.2771 19.9707C97.0811 21.1167 98.0539 22.1224 98.7986 23.3206C100.233 25.6223 101.151 28.3692 101.538 31.0512C101.823 33.0265 101.819 34.9864 101.817 36.978C101.817 37.7304 101.471 38.8112 101.766 39.518C102.093 40.2997 103.16 40.9047 103.75 41.488C104.564 42.2929 105.408 43.0862 106.176 43.9355C106.805 44.6304 107.374 45.4403 108.131 45.997C108.935 44.585 109.588 43.0111 110.151 41.4875C110.37 40.8946 110.751 40.2061 110.674 39.5548C110.601 38.9462 110.128 38.384 109.812 37.8799C109.137 36.8026 108.44 35.7393 107.769 34.6588C105.528 31.0504 103.067 27.569 100.454 24.2225C99.676 23.2253 98.8553 22.3066 97.974 21.3994C97.4586 20.8687 96.9523 20.2857 96.2771 19.9707Z" fill="#030405"/>
<path d="M103.879 20.0995C104.724 21.0144 105.994 21.6086 106.971 22.3934C108.821 23.8808 110.534 25.5931 112.022 27.4436C114.06 29.9802 115.641 32.8958 116.757 35.9472C117.191 37.1366 117.242 38.5556 117.763 39.6837C118.023 40.2453 118.47 40.7241 118.822 41.2298C119.884 42.7618 121.126 44.3035 121.917 45.997C122.158 45.423 121.936 44.798 121.918 44.1932C121.861 42.2627 121.322 40.3462 120.715 38.5241C118.706 32.4976 114.176 27.2271 109.161 23.4658C107.589 22.2864 105.774 20.6994 103.879 20.0995Z" fill="#030405"/>
<path d="M84.9389 20.3573C84.515 22.0777 84.5073 23.8962 84.1659 25.6398C83.6028 28.5187 82.6623 31.2763 81.6302 34.0146C81.1303 35.3368 80.499 36.6112 79.8805 37.8799C79.6525 38.348 79.1474 39.0092 79.2415 39.5549C79.3433 40.1487 80.0003 40.6673 80.3753 41.101C81.3931 42.2824 82.4239 43.4713 83.5216 44.5798C83.8463 44.9079 84.4364 45.8415 84.9441 45.8415C85.5458 45.8415 86.1204 44.8378 86.4902 44.4509C87.4913 43.4024 88.4602 42.324 89.4123 41.2298C89.8027 40.7815 90.4341 40.2656 90.6132 39.6837C90.7729 39.1624 90.3465 38.583 90.1248 38.1376C89.5335 36.9551 89.022 35.7379 88.4873 34.53C87.1898 31.5949 86.2312 28.4106 85.6617 25.2533C85.4775 24.2318 85.3564 23.1913 85.234 22.1611C85.1605 21.5537 85.1927 20.9227 84.9389 20.3573Z" fill="#030405"/>
<path d="M46.5436 51.6661H123.463C123.454 51.2881 123.463 50.8561 123.15 50.5842C122.855 50.3283 122.408 50.3784 122.046 50.3777L47.7032 50.3778C47.3915 50.3799 46.9913 50.3433 46.7501 50.5842C46.4831 50.8512 46.5448 51.3229 46.5436 51.6661Z" fill="#030405"/>
<path d="M0.0227273 167V143.727H15.7045V147.784H4.94318V153.33H14.8977V157.386H4.94318V162.943H15.75V167H0.0227273Z" fill="#2F2F2F"/>
<path d="M25.9574 167.284C24.6316 167.284 23.4309 166.943 22.3551 166.261C21.2869 165.572 20.4384 164.561 19.8097 163.227C19.1884 161.886 18.8778 160.242 18.8778 158.295C18.8778 156.295 19.1998 154.633 19.8438 153.307C20.4877 151.973 21.3438 150.977 22.4119 150.318C23.4877 149.652 24.6657 149.318 25.946 149.318C26.9233 149.318 27.7377 149.485 28.3892 149.818C29.0483 150.144 29.5786 150.553 29.9801 151.045C30.3892 151.53 30.6998 152.008 30.9119 152.477H31.0597V143.727H35.8892V167H31.1165V164.205H30.9119C30.6847 164.689 30.3627 165.17 29.946 165.648C29.5369 166.117 29.0028 166.508 28.3438 166.818C27.6922 167.129 26.8968 167.284 25.9574 167.284ZM27.4915 163.432C28.2718 163.432 28.9309 163.22 29.4688 162.795C30.0142 162.364 30.4309 161.761 30.7188 160.989C31.0142 160.216 31.1619 159.311 31.1619 158.273C31.1619 157.235 31.018 156.333 30.7301 155.568C30.4422 154.803 30.0256 154.212 29.4801 153.795C28.9347 153.379 28.2718 153.17 27.4915 153.17C26.696 153.17 26.0256 153.386 25.4801 153.818C24.9347 154.25 24.5218 154.848 24.2415 155.614C23.9612 156.379 23.821 157.265 23.821 158.273C23.821 159.288 23.9612 160.186 24.2415 160.966C24.5294 161.739 24.9422 162.345 25.4801 162.784C26.0256 163.216 26.696 163.432 27.4915 163.432Z" fill="#2F2F2F"/>
<path d="M51.0625 159.568V149.545H55.9034V167H51.2557V163.83H51.0739C50.6799 164.852 50.0246 165.674 49.108 166.295C48.1989 166.917 47.089 167.227 45.7784 167.227C44.6117 167.227 43.5852 166.962 42.6989 166.432C41.8125 165.902 41.1193 165.148 40.6193 164.17C40.1269 163.193 39.8769 162.023 39.8693 160.659V149.545H44.7102V159.795C44.7178 160.826 44.9943 161.64 45.5398 162.239C46.0852 162.837 46.8163 163.136 47.733 163.136C48.3163 163.136 48.8617 163.004 49.3693 162.739C49.8769 162.466 50.286 162.064 50.5966 161.534C50.9148 161.004 51.0701 160.348 51.0625 159.568Z" fill="#2F2F2F"/>
<path d="M59.8665 143.727H65.9347L72.3438 159.364H72.6165L79.0256 143.727H85.0938V167H80.321V151.852H80.1278L74.1051 166.886H70.8551L64.8324 151.795H64.6392V167H59.8665V143.727Z" fill="#2F2F2F"/>
<path d="M59.8665 143.727H65.9347L72.3438 159.364H72.6165L79.0256 143.727H85.0938V167H80.321V151.852H80.1278L74.1051 166.886H70.8551L64.8324 151.795H64.6392V167H59.8665V143.727Z" fill="#39B285"/>
<path d="M97.0114 167.341C95.2159 167.341 93.6705 166.977 92.375 166.25C91.0871 165.515 90.0947 164.477 89.3977 163.136C88.7008 161.788 88.3523 160.193 88.3523 158.352C88.3523 156.557 88.7008 154.981 89.3977 153.625C90.0947 152.269 91.0758 151.212 92.3409 150.455C93.6136 149.697 95.1061 149.318 96.8182 149.318C97.9697 149.318 99.0417 149.504 100.034 149.875C101.034 150.239 101.905 150.788 102.648 151.523C103.398 152.258 103.981 153.182 104.398 154.295C104.814 155.402 105.023 156.697 105.023 158.182V159.511H90.2841V156.511H100.466C100.466 155.814 100.314 155.197 100.011 154.659C99.7083 154.121 99.2879 153.701 98.75 153.398C98.2197 153.087 97.6023 152.932 96.8977 152.932C96.1629 152.932 95.5114 153.102 94.9432 153.443C94.3826 153.777 93.9432 154.227 93.625 154.795C93.3068 155.356 93.1439 155.981 93.1364 156.67V159.523C93.1364 160.386 93.2955 161.133 93.6136 161.761C93.9394 162.39 94.3977 162.875 94.9886 163.216C95.5795 163.557 96.2803 163.727 97.0909 163.727C97.6288 163.727 98.1212 163.652 98.5682 163.5C99.0152 163.348 99.3977 163.121 99.7159 162.818C100.034 162.515 100.277 162.144 100.443 161.705L104.92 162C104.693 163.076 104.227 164.015 103.523 164.818C102.826 165.614 101.924 166.235 100.818 166.682C99.7197 167.121 98.4508 167.341 97.0114 167.341Z" fill="#2F2F2F"/>
<path d="M97.0114 167.341C95.2159 167.341 93.6705 166.977 92.375 166.25C91.0871 165.515 90.0947 164.477 89.3977 163.136C88.7008 161.788 88.3523 160.193 88.3523 158.352C88.3523 156.557 88.7008 154.981 89.3977 153.625C90.0947 152.269 91.0758 151.212 92.3409 150.455C93.6136 149.697 95.1061 149.318 96.8182 149.318C97.9697 149.318 99.0417 149.504 100.034 149.875C101.034 150.239 101.905 150.788 102.648 151.523C103.398 152.258 103.981 153.182 104.398 154.295C104.814 155.402 105.023 156.697 105.023 158.182V159.511H90.2841V156.511H100.466C100.466 155.814 100.314 155.197 100.011 154.659C99.7083 154.121 99.2879 153.701 98.75 153.398C98.2197 153.087 97.6023 152.932 96.8977 152.932C96.1629 152.932 95.5114 153.102 94.9432 153.443C94.3826 153.777 93.9432 154.227 93.625 154.795C93.3068 155.356 93.1439 155.981 93.1364 156.67V159.523C93.1364 160.386 93.2955 161.133 93.6136 161.761C93.9394 162.39 94.3977 162.875 94.9886 163.216C95.5795 163.557 96.2803 163.727 97.0909 163.727C97.6288 163.727 98.1212 163.652 98.5682 163.5C99.0152 163.348 99.3977 163.121 99.7159 162.818C100.034 162.515 100.277 162.144 100.443 161.705L104.92 162C104.693 163.076 104.227 164.015 103.523 164.818C102.826 165.614 101.924 166.235 100.818 166.682C99.7197 167.121 98.4508 167.341 97.0114 167.341Z" fill="#39B285"/>
<path d="M113.023 156.909V167H108.182V149.545H112.795V152.625H113C113.386 151.61 114.034 150.807 114.943 150.216C115.852 149.617 116.955 149.318 118.25 149.318C119.462 149.318 120.519 149.583 121.42 150.114C122.322 150.644 123.023 151.402 123.523 152.386C124.023 153.364 124.273 154.53 124.273 155.886V167H119.432V156.75C119.439 155.682 119.167 154.848 118.614 154.25C118.061 153.644 117.299 153.341 116.33 153.341C115.678 153.341 115.102 153.481 114.602 153.761C114.11 154.042 113.723 154.451 113.443 154.989C113.17 155.519 113.03 156.159 113.023 156.909Z" fill="#2F2F2F"/>
<path d="M113.023 156.909V167H108.182V149.545H112.795V152.625H113C113.386 151.61 114.034 150.807 114.943 150.216C115.852 149.617 116.955 149.318 118.25 149.318C119.462 149.318 120.519 149.583 121.42 150.114C122.322 150.644 123.023 151.402 123.523 152.386C124.023 153.364 124.273 154.53 124.273 155.886V167H119.432V156.75C119.439 155.682 119.167 154.848 118.614 154.25C118.061 153.644 117.299 153.341 116.33 153.341C115.678 153.341 115.102 153.481 114.602 153.761C114.11 154.042 113.723 154.451 113.443 154.989C113.17 155.519 113.03 156.159 113.023 156.909Z" fill="#39B285"/>
<path d="M137.372 149.545V153.182H126.861V149.545H137.372ZM129.247 145.364H134.088V161.636C134.088 162.083 134.156 162.432 134.293 162.682C134.429 162.924 134.618 163.095 134.861 163.193C135.111 163.292 135.399 163.341 135.724 163.341C135.952 163.341 136.179 163.322 136.406 163.284C136.634 163.239 136.808 163.205 136.929 163.182L137.69 166.784C137.448 166.86 137.107 166.947 136.668 167.045C136.228 167.152 135.694 167.216 135.065 167.239C133.899 167.284 132.876 167.129 131.997 166.773C131.126 166.417 130.448 165.864 129.963 165.114C129.478 164.364 129.24 163.417 129.247 162.273V145.364Z" fill="#2F2F2F"/>
<path d="M137.372 149.545V153.182H126.861V149.545H137.372ZM129.247 145.364H134.088V161.636C134.088 162.083 134.156 162.432 134.293 162.682C134.429 162.924 134.618 163.095 134.861 163.193C135.111 163.292 135.399 163.341 135.724 163.341C135.952 163.341 136.179 163.322 136.406 163.284C136.634 163.239 136.808 163.205 136.929 163.182L137.69 166.784C137.448 166.86 137.107 166.947 136.668 167.045C136.228 167.152 135.694 167.216 135.065 167.239C133.899 167.284 132.876 167.129 131.997 166.773C131.126 166.417 130.448 165.864 129.963 165.114C129.478 164.364 129.24 163.417 129.247 162.273V145.364Z" fill="#39B285"/>
<path d="M148.224 167.341C146.459 167.341 144.933 166.966 143.645 166.216C142.365 165.458 141.376 164.405 140.679 163.057C139.982 161.701 139.634 160.129 139.634 158.341C139.634 156.538 139.982 154.962 140.679 153.614C141.376 152.258 142.365 151.205 143.645 150.455C144.933 149.697 146.459 149.318 148.224 149.318C149.99 149.318 151.512 149.697 152.793 150.455C154.08 151.205 155.073 152.258 155.77 153.614C156.467 154.962 156.815 156.538 156.815 158.341C156.815 160.129 156.467 161.701 155.77 163.057C155.073 164.405 154.08 165.458 152.793 166.216C151.512 166.966 149.99 167.341 148.224 167.341ZM148.247 163.591C149.05 163.591 149.721 163.364 150.259 162.909C150.796 162.447 151.202 161.818 151.474 161.023C151.755 160.227 151.895 159.322 151.895 158.307C151.895 157.292 151.755 156.386 151.474 155.591C151.202 154.795 150.796 154.167 150.259 153.705C149.721 153.242 149.05 153.011 148.247 153.011C147.437 153.011 146.755 153.242 146.202 153.705C145.656 154.167 145.243 154.795 144.963 155.591C144.69 156.386 144.554 157.292 144.554 158.307C144.554 159.322 144.69 160.227 144.963 161.023C145.243 161.818 145.656 162.447 146.202 162.909C146.755 163.364 147.437 163.591 148.247 163.591Z" fill="#2F2F2F"/>
<path d="M148.224 167.341C146.459 167.341 144.933 166.966 143.645 166.216C142.365 165.458 141.376 164.405 140.679 163.057C139.982 161.701 139.634 160.129 139.634 158.341C139.634 156.538 139.982 154.962 140.679 153.614C141.376 152.258 142.365 151.205 143.645 150.455C144.933 149.697 146.459 149.318 148.224 149.318C149.99 149.318 151.512 149.697 152.793 150.455C154.08 151.205 155.073 152.258 155.77 153.614C156.467 154.962 156.815 156.538 156.815 158.341C156.815 160.129 156.467 161.701 155.77 163.057C155.073 164.405 154.08 165.458 152.793 166.216C151.512 166.966 149.99 167.341 148.224 167.341ZM148.247 163.591C149.05 163.591 149.721 163.364 150.259 162.909C150.796 162.447 151.202 161.818 151.474 161.023C151.755 160.227 151.895 159.322 151.895 158.307C151.895 157.292 151.755 156.386 151.474 155.591C151.202 154.795 150.796 154.167 150.259 153.705C149.721 153.242 149.05 153.011 148.247 153.011C147.437 153.011 146.755 153.242 146.202 153.705C145.656 154.167 145.243 154.795 144.963 155.591C144.69 156.386 144.554 157.292 144.554 158.307C144.554 159.322 144.69 160.227 144.963 161.023C145.243 161.818 145.656 162.447 146.202 162.909C146.755 163.364 147.437 163.591 148.247 163.591Z" fill="#39B285"/>
<path d="M159.963 167V149.545H164.656V152.591H164.838C165.156 151.508 165.69 150.689 166.44 150.136C167.19 149.576 168.054 149.295 169.031 149.295C169.274 149.295 169.535 149.311 169.815 149.341C170.096 149.371 170.342 149.413 170.554 149.466V153.761C170.327 153.693 170.012 153.633 169.611 153.58C169.209 153.527 168.842 153.5 168.509 153.5C167.796 153.5 167.16 153.655 166.599 153.966C166.046 154.269 165.607 154.693 165.281 155.239C164.963 155.784 164.804 156.413 164.804 157.125V167H159.963Z" fill="#2F2F2F"/>
<path d="M159.963 167V149.545H164.656V152.591H164.838C165.156 151.508 165.69 150.689 166.44 150.136C167.19 149.576 168.054 149.295 169.031 149.295C169.274 149.295 169.535 149.311 169.815 149.341C170.096 149.371 170.342 149.413 170.554 149.466V153.761C170.327 153.693 170.012 153.633 169.611 153.58C169.209 153.527 168.842 153.5 168.509 153.5C167.796 153.5 167.16 153.655 166.599 153.966C166.046 154.269 165.607 154.693 165.281 155.239C164.963 155.784 164.804 156.413 164.804 157.125V167H159.963Z" fill="#39B285"/>
</svg>
