<svg width="19" height="19" viewBox="0 0 19 19" fill="none" xmlns="http://www.w3.org/2000/svg">
<path opacity="0.5" d="M18.2705 9.13525C18.2705 14.1805 14.1805 18.2705 9.13525 18.2705C4.08999 18.2705 0 14.1805 0 9.13525C0 4.08999 4.08999 0 9.13525 0C14.1805 0 18.2705 4.08999 18.2705 9.13525Z" fill="#F3F3F3"/>
<path d="M7.68522 5.9362L7.83494 5.66769C8.41348 4.62981 8.70279 4.11086 9.13526 4.11086C9.56772 4.11086 9.85703 4.6298 10.4356 5.66769L10.5853 5.93621C10.7496 6.23113 10.8319 6.37859 10.96 6.47589C11.0882 6.57319 11.2479 6.60931 11.5672 6.68154L11.8577 6.74731C12.9813 7.00151 13.543 7.12861 13.6767 7.55842C13.8103 7.98814 13.4274 8.43595 12.6615 9.33166L12.4632 9.56333C12.2456 9.81784 12.1368 9.94509 12.0879 10.1026C12.0389 10.26 12.0553 10.4298 12.0882 10.7694L12.1182 11.0785C12.234 12.2735 12.2919 12.871 11.942 13.1366C11.5921 13.4022 11.0662 13.1601 10.0142 12.6757L9.74211 12.5504C9.44311 12.4128 9.29366 12.3439 9.13526 12.3439C8.97685 12.3439 8.8274 12.4128 8.5284 12.5504L8.25626 12.6757C7.20436 13.1601 6.67841 13.4022 6.32851 13.1366C5.97862 12.871 6.03652 12.2735 6.15232 11.0785L6.18228 10.7694C6.21518 10.4298 6.23163 10.26 6.18268 10.1026C6.13372 9.94509 6.02489 9.81784 5.80725 9.56333L5.60909 9.33166C4.84317 8.43595 4.46021 7.98814 4.59386 7.55842C4.7275 7.12861 5.28926 7.00151 6.41274 6.74731L6.7034 6.68154C7.02266 6.60931 7.18229 6.57319 7.31049 6.47589C7.43866 6.37859 7.52087 6.23113 7.68522 5.9362Z" fill="#F3F3F3"/>
</svg>
